<?xml version="1.0" encoding="UTF-8" standalone="no"?>
<!-- Created with Inkscape (http://www.inkscape.org/) -->

<svg
   xmlns:dc="http://purl.org/dc/elements/1.1/"
   xmlns:cc="http://creativecommons.org/ns#"
   xmlns:rdf="http://www.w3.org/1999/02/22-rdf-syntax-ns#"
   xmlns:svg="http://www.w3.org/2000/svg"
   xmlns="http://www.w3.org/2000/svg"
   xmlns:sodipodi="http://sodipodi.sourceforge.net/DTD/sodipodi-0.dtd"
   xmlns:inkscape="http://www.inkscape.org/namespaces/inkscape"
   width="84.601608mm"
   height="84.666664mm"
   viewBox="0 0 299.76948 299.99999"
   id="svg2"
   version="1.1"
   inkscape:version="0.91 r13725"
   sodipodi:docname="Globe-Oil-Logo.svg">
  <defs
     id="defs4" />
  <sodipodi:namedview
     id="base"
     pagecolor="#ffffff"
     bordercolor="#666666"
     borderopacity="1.0"
     inkscape:pageopacity="0.0"
     inkscape:pageshadow="2"
     inkscape:zoom="1.28"
     inkscape:cx="245.50488"
     inkscape:cy="160.96224"
     inkscape:document-units="px"
     inkscape:current-layer="layer1"
     showgrid="false"
     inkscape:window-width="1600"
     inkscape:window-height="837"
     inkscape:window-x="-8"
     inkscape:window-y="-8"
     inkscape:window-maximized="1"
     fit-margin-top="0"
     fit-margin-left="0"
     fit-margin-right="0"
     fit-margin-bottom="0"
     showguides="false" />
  <metadata
     id="metadata7">
    <rdf:RDF>
      <cc:Work
         rdf:about="">
        <dc:format>image/svg+xml</dc:format>
        <dc:type
           rdf:resource="http://purl.org/dc/dcmitype/StillImage" />
        <dc:title></dc:title>
      </cc:Work>
    </rdf:RDF>
  </metadata>
  <g
     inkscape:label="Ebene 1"
     inkscape:groupmode="layer"
     id="layer1"
     transform="translate(260.34671,-634.07925)">
    <text
       xml:space="preserve"
       style="font-style:normal;font-weight:normal;font-size:23.4800663px;line-height:125%;font-family:sans-serif;letter-spacing:0px;word-spacing:0px;fill:#000000;fill-opacity:1;stroke:none;stroke-width:1px;stroke-linecap:butt;stroke-linejoin:miter;stroke-opacity:1"
       x="31.551001"
       y="755.42413"
       id="text4459"
       sodipodi:linespacing="125%"><tspan
         sodipodi:role="line"
         id="tspan4461"
         x="31.551001"
         y="755.42413"></tspan></text>
    <g
       transform="matrix(0.57120807,0,0,0.60323197,-107.52276,385.77318)"
       style="font-style:normal;font-weight:normal;font-size:153.69000244px;line-height:125%;font-family:sans-serif;letter-spacing:0px;word-spacing:0px;fill:#ff00ff;fill-opacity:1;stroke:none;stroke-width:1px;stroke-linecap:butt;stroke-linejoin:miter;stroke-opacity:1"
       id="text4465" />
    <path
       style="fill:#ffffff;fill-opacity:1"
       d="m -126.1635,931.16755 c -35.44132,-3.82209 -63.88966,-17.58294 -88.39255,-42.15249 -22.37342,-22.43427 -36.9909,-49.03147 -42.54051,-81.14757 -1.14989,-6.65443 -1.31864,-9.69687 -1.31864,-23.77357 0,-14.07665 1.15998,-16.12787 2.30985,-22.78234 5.54847,-32.10941 16.78905,-60.12104 39.10452,-82.43649 22.31546,-22.31546 50.07927,-36.5297 82.18872,-42.07817 6.65444,-1.14987 9.69687,-1.31862 23.77356,-1.31862 14.076705,0 17.11914,0.16875 23.773575,1.31862 32.109434,5.54847 59.873248,19.76271 82.1887127,42.07817 22.3154603,22.31545 36.5297063,50.07928 42.0781693,82.18867 1.149878,6.65449 1.318629,9.69691 1.318629,23.77357 0,14.07671 -0.168751,17.11914 -1.318629,23.77358 -5.549614,32.11609 -19.671482,59.70451 -42.0449098,82.13878 -22.3137292,22.37445 -50.6875632,33.58088 -82.6898972,39.0819 -5.836005,1.00314 -10.23435,1.29171 -21.70105,1.42366 -7.90985,0.091 -15.43814,0.0516 -16.72955,-0.0878 z"
       id="path4543"
       inkscape:connector-curvature="0"
       sodipodi:nodetypes="csssssssssssssssc" />
    <path
       style="fill:#b70000;fill-opacity:1"
       d="m -41.971637,818.10865 -6.016754,0.16739 -6.01563,0.16854 -1.312725,6.75052 c -1.31502,6.75972 -2.724015,12.71225 -3.855645,16.2893 l -0.603045,1.90774 -22.554854,0 -22.5537,0 0,-12.62053 0,-12.62054 -6.16351,0 -6.16353,0 0,12.62628 0,12.62741 -24.21381,-0.15363 -24.21383,-0.15248 -1.88941,-7.63102 c -1.03955,-4.19706 -2.24454,-9.74423 -2.67705,-12.32705 l -0.78648,-4.696 -5.98124,-0.16739 c -4.07538,-0.114 -5.98236,0.0387 -5.98236,0.48038 0,1.10311 3.44456,17.70012 4.38186,21.11257 0.48774,1.77567 0.89016,3.29454 0.89427,3.37526 0.005,0.0807 -9.36676,0.1467 -20.82366,0.1467 l -20.83053,0 -2.94991,-6.16236 c -1.62224,-3.38856 -3.93726,-9.06713 -5.1443,-12.6194 l -2.19436,-6.45816 -6.32174,-0.001 -6.32059,0 0.38751,1.61425 c 1.17571,4.89228 5.54065,16.15232 9.0733,23.40555 13.32864,27.36635 35.06681,49.09235 62.46869,62.43428 16.41024,7.99014 32.09529,12.2043 50.18863,13.48384 9.16203,0.64794 9.06329,0.64758 17.62955,0.0299 18.99244,-1.36966 34.412274,-5.5182 51.343149,-13.81288 13.856759,-6.78861 24.473474,-14.42909 35.832327,-25.78794 13.1514027,-13.15143 22.3206624,-26.71295 29.260654,-43.27761 2.180271,-5.204 6.227723,-16.77426 6.227723,-17.80268 0,-0.15756 -2.839621,-0.28593 -6.310268,-0.28546 l -6.3102676,0 -2.1955275,6.46045 c -1.2073919,3.55334 -3.5584739,9.23189 -5.22568782,12.6194 l -3.03131238,6.16006 -22.2785467,0 c -20.979375,0 -22.255484,-0.0599 -21.877274,-1.02724 0.53619,-1.37145 2.975144,-12.3939 3.799454,-17.1698 0.362205,-2.09854 0.8058,-4.55211 0.984825,-5.45155 l 0.325605,-1.6349 z m -150.650753,37.02353 c 17.09964,0 18.53638,0.0782 18.86773,1.02726 4.06575,11.64486 10.68689,25.8823 16.78802,36.1006 2.45779,4.11635 4.15359,7.47612 3.76851,7.46708 -1.64184,-0.0387 -14.13408,-5.96586 -20.23551,-9.60185 -9.33966,-5.56572 -17.5428,-11.92062 -24.74579,-19.16812 -5.4928,-5.52675 -12.95187,-14.42513 -12.95187,-15.45122 0,-0.20605 8.32896,-0.37375 18.50891,-0.37375 z m 53.3988,0 22.01256,0 0,25.82808 0,25.82808 -3.66876,-0.0734 c -4.24968,-0.084 -10.38998,-0.89574 -12.31901,-1.62917 -2.70967,-1.03021 -13.53985,-17.59395 -19.80442,-30.28905 -3.72554,-7.54975 -8.23293,-18.05755 -8.23293,-19.1922 0,-0.26011 9.90565,-0.47236 22.01256,-0.47236 z m 34.3396,0 20.54505,0 c 11.299784,0 20.545064,0.21225 20.545064,0.47236 0,0.96006 -4.27029,11.021 -7.61268,17.93565 -5.671005,11.73204 -17.755439,30.5708 -20.579459,32.08217 -0.5817,0.31129 -3.72138,0.74049 -6.97752,0.95388 l -5.920455,0.38751 0,-25.91636 0,-25.91521 z m 53.978924,0 19.970669,0 c 10.983855,0 19.970672,0.2044 19.970672,0.45516 0,1.00086 -8.145764,10.71178 -13.162832,15.69198 -11.981505,11.89342 -29.073149,22.89558 -43.663979,28.10614 -5.5983,1.9992 -6.473475,1.96454 -4.57563,-0.18229 1.35501,-1.53279 9.35424,-15.79599 12.206655,-21.76493 1.46568,-3.06708 3.90525,-8.74632 5.420595,-12.62053 1.515345,-3.87422 2.998245,-7.63836 3.295005,-8.36477 l 0.538845,-1.32076 z"
       id="path4539"
       inkscape:connector-curvature="0" />
    <path
       style="fill:#000000"
       d="m -239.53042,803.95108 c -1.2527,-0.34558 -3.27546,-1.62615 -4.49502,-2.84572 -3.12683,-3.12683 -3.65577,-6.08424 -3.40811,-19.05542 0.19053,-9.97971 0.28317,-10.71261 1.66923,-13.20753 1.08371,-1.95066 2.23514,-3.02532 4.40252,-4.10902 2.67616,-1.33808 3.73045,-1.4852 11.95431,-1.66821 10.44417,-0.23243 13.15567,0.42028 15.72163,3.78442 1.74177,2.28357 2.93595,9.51435 1.65266,10.0068 -0.37511,0.144 -2.50484,0.18269 -4.73277,0.0861 l -4.05077,-0.17559 -0.17961,-2.0545 c -0.26968,-3.08502 -1.28428,-3.52202 -8.17729,-3.52202 -5.67053,0 -6.1746,0.0966 -7.51883,1.44083 -1.41397,1.41397 -1.44082,1.62232 -1.44082,11.17971 0,9.5574 0.0268,9.76575 1.44082,11.17971 1.32989,1.32988 1.87524,1.44082 7.08261,1.44082 3.10299,0 6.12494,-0.25857 6.71547,-0.5746 1.10588,-0.59186 2.37116,-3.46427 2.37116,-5.38299 0,-0.97142 -0.52451,-1.08642 -4.95488,-1.08642 -2.72518,0 -5.05225,-0.19811 -5.17129,-0.44025 -0.1191,-0.24215 -0.11025,-1.95912 0.0197,-3.81551 l 0.2361,-3.37527 9.48445,-5.8e-4 9.48446,-5.9e-4 -0.18329,7.48509 c -0.22935,9.36686 -1.13085,11.71545 -5.28177,13.76007 -2.46426,1.21383 -3.67638,1.36776 -11.55799,1.46774 -4.84277,0.0615 -9.82997,-0.17105 -11.08266,-0.51662 z"
       id="path4529"
       inkscape:connector-curvature="0" />
    <path
       style="fill:#000000"
       d="m -207.60919,783.81094 0,-20.83855 4.696,0 4.69602,0 0,16.72954 0,16.72955 8.51153,0 8.51152,0 0,4.10902 0,4.10901 -13.20754,0 -13.20753,0 0,-20.83857 z"
       id="path4527"
       inkscape:connector-curvature="0" />
    <path
       style="fill:#000000"
       d="m -160.64916,762.97291 c -8.44545,0 -12.07854,0.94802 -14.5902,3.80864 -2.41894,2.75503 -2.72634,4.70523 -2.72634,17.32342 0,14.54307 1.20159,17.72775 7.42122,19.668 3.62021,1.12934 15.89645,1.12299 19.7127,-0.0105 3.40724,-1.01184 6.05243,-3.60645 7.27446,-7.13458 1.09797,-3.16983 1.11009,-22.53927 0.0161,-25.63433 -2.15337,-6.09196 -6.26782,-8.02083 -17.10789,-8.02083 z m 0.1032,8.21804 c 2.89112,0 5.7561,0.26722 6.36645,0.59388 1.66412,0.89061 2.32851,4.23856 2.32851,11.73315 0,7.63882 -0.63882,10.71525 -2.49475,12.01519 -2.01206,1.4093 -11.01866,1.25273 -12.8418,-0.22357 -1.36178,-1.10271 -1.38611,-1.30151 -1.38611,-11.49812 0,-10.19662 0.0243,-10.39656 1.38611,-11.49927 1.13385,-0.91815 2.34061,-1.12126 6.64159,-1.12126 z"
       id="path4525"
       inkscape:connector-curvature="0" />
    <path
       style="fill:#000000"
       d="m -137.16909,762.87661 0,20.94174 0,20.9406 13.6478,-0.20178 c 12.45903,-0.18409 13.82506,-0.30571 15.68166,-1.39642 2.9148,-1.71239 4.24231,-4.35635 4.58365,-9.12719 0.32561,-4.55082 -0.86301,-8.73975 -2.88112,-10.15329 -1.13657,-0.79608 -1.13067,-0.84513 0.34279,-3.01641 1.28126,-1.88803 1.49676,-2.85171 1.49618,-6.67371 -0.001,-5.3431 -1.12007,-7.99387 -4.10787,-9.73023 -1.87053,-1.08706 -3.25037,-1.21105 -15.4088,-1.3884 l -13.35429,-0.19491 z m 9.39203,8.31434 6.05116,0 c 7.49511,0 8.1834,0.38151 7.92797,4.40709 -0.15299,2.4109 -0.43275,3.02713 -1.65209,3.64125 -1.39228,0.7012 -9.05034,0.93981 -11.29978,0.35197 -0.85364,-0.22308 -1.02726,-0.95613 -1.02726,-4.33488 l 0,-4.06543 z m 0,15.747 6.79867,0.19719 c 7.91892,0.22977 8.63837,0.67551 8.343,5.17296 -0.13935,2.12256 -0.45514,2.77017 -1.64062,3.36723 -0.89054,0.44851 -3.83309,0.74223 -7.48428,0.74751 l -6.01677,0.009 0,-4.74761 0,-4.74646 z"
       id="path4521"
       inkscape:connector-curvature="0" />
    <path
       style="fill:#000000"
       d="m -97.83987,783.81094 0,-20.83855 14.381535,0 14.381549,0 0,4.10901 0,4.10901 -9.68553,0 -9.685529,0 0,4.10901 0,4.10902 9.098534,0 9.09852,0 0,4.10901 0,4.10901 -9.09852,0 -9.098534,0 0,4.40252 0,4.4025 9.685529,0 9.68553,0 0,4.10902 0,4.10901 -14.381549,0 -14.381535,0 0,-20.83857 z"
       id="path4515"
       inkscape:connector-curvature="0" />
    <path
       style="fill:#000000"
       d="m -38.806172,762.97521 c -8.239199,0.005 -10.756124,0.56634 -13.558364,3.02673 -3.337005,2.92992 -3.967845,6.21841 -3.67908,19.19908 0.261675,11.76308 0.69741,13.7742 3.55755,16.40969 0.814245,0.75028 2.631315,1.72347 4.037925,2.16226 3.620219,1.12934 15.896444,1.12299 19.712714,-0.0105 3.47583,-1.03221 6.231135,-3.78652 7.170135,-7.16784 0.338655,-1.21951 0.61734,-7.17925 0.619095,-13.24308 0.003,-11.99199 -0.37002,-13.87732 -3.37869,-17.01846 -2.337165,-2.44003 -6.313185,-3.36159 -14.481285,-3.35806 z m -2.422545,8.2272 c 0.84543,-1.2e-4 1.924305,0.032 3.33858,0.0802 5.01417,0.17101 6.01449,0.37035 6.723,1.34025 0.6405,0.87679 0.83235,3.42082 0.83235,11.03379 0,9.72157 -0.02535,9.9184 -1.441125,11.33418 -1.31844,1.31844 -1.893765,1.44114 -6.776895,1.44114 -4.883115,0 -5.45844,-0.1227 -6.77688,-1.44114 -1.414004,-1.41396 -1.441139,-1.62201 -1.441139,-11.1794 0,-9.6532 0.0135,-9.75262 1.495019,-11.23443 1.076775,-1.07677 1.510845,-1.37431 4.04709,-1.37464 z"
       id="path4513"
       inkscape:connector-curvature="0" />
    <path
       style="fill:#000000"
       d="m -16.107386,783.9577 0.154258,-20.69181 4.549263,-0.17145 4.5492628,-0.17143 0,20.86324 0,20.86326 -4.7035218,0 -4.703527,0 0.154265,-20.69181 z"
       id="path4509"
       inkscape:connector-curvature="0" />
    <path
       style="fill:#000000"
       d="m -1.5715874,783.81094 0,-20.83855 4.6868744,0 4.6868668,0 0.1558965,16.5828 0.1558905,16.5828 8.3647802,0.16287 8.364773,0.16285 0,4.0929 0,4.0929 -13.207543,0 -13.2075384,0 0,-20.83857 z"
       id="path4507"
       inkscape:connector-curvature="0" />
    <path
       style="fill:#b70000;fill-opacity:1"
       d="m -115.99575,648.5546 c -6.35413,-0.0276 -9.10221,0.24664 -14.51797,1.09719 -14.69111,2.30725 -26.38571,5.88798 -39.23396,12.0129 -30.07098,14.3352 -54.81733,40.76802 -67.09246,71.66464 -1.98759,5.00279 -5.40225,15.03954 -5.40225,15.87887 0,0.14475 2.83962,0.26313 6.31027,0.26254 l 6.31028,-10e-4 2.1829,-6.42492 c 1.20077,-3.53385 3.53894,-9.21242 5.19474,-12.61938 l 3.00953,-6.19448 20.82136,0 c 19.55292,0 20.80242,0.0625 20.51868,1.02725 -1.34382,4.56898 -5.06058,21.82756 -5.06058,23.49957 0,0.57738 1.41596,0.71488 6.01103,0.58699 l 6.00988,-0.16624 0.41733,-2.93501 c 0.54728,-3.85533 2.62049,-13.0738 4.05971,-18.05029 l 1.14649,-3.96227 24.04986,0 24.04988,0 0,12.91404 0,12.91403 6.16353,0 6.16351,0 0,-12.91403 0,-12.91404 22.576635,0 22.575479,0 0.59847,2.20125 c 2.23929,8.23184 5.318565,21.72047 5.318565,23.29893 0,0.18005 2.6415,0.32789 5.87001,0.32789 3.228509,0 5.867804,-0.19811 5.864279,-0.44025 -0.02025,-1.46768 -2.55183,-14.28395 -3.79716,-19.22315 -0.813824,-3.22776 -1.480109,-5.9353 -1.480109,-6.01677 0,-0.0814 9.971684,-0.1482 22.159304,-0.1479 l 22.1593147,10e-4 1.5511979,2.7871 c 2.07403047,3.72621 5.8545494,12.81401 7.8144598,18.78405 l 1.5901769,4.84277 6.1153647,0 c 4.947632,0 6.115366,-0.16284 6.115366,-0.8507 0,-1.35034 -2.858933,-10.06428 -5.402252,-16.46586 -14.08249943,-35.44579 -44.061578,-64.31514 -80.123437,-77.15746 -15.308969,-5.45184 -24.851939,-7.12293 -42.829334,-7.49918 -3.15195,-0.066 -5.67004,-0.1089 -7.78809,-0.11805 z m 11.11176,12.11149 5.972055,0.4116 c 3.284565,0.22622 6.445425,0.66458 7.02453,0.97451 2.75499,1.47442 14.518574,19.8508 20.373074,31.82535 3.13026,6.40249 7.720455,17.24458 7.720455,18.23604 0,0.20739 -9.24528,0.37719 -20.545064,0.37719 l -20.54505,0 0,-25.91292 0,-25.91177 z m -12.32704,0.16854 0,25.82807 0,25.82808 -22.01256,0 c -12.10691,0 -22.01256,-0.22961 -22.01256,-0.5102 0,-0.80554 5.55316,-14.00329 7.93599,-18.86086 3.01314,-6.14253 7.96371,-14.50802 12.679,-21.42555 6.58934,-9.66684 6.02094,-9.19251 12.01863,-10.0421 2.8755,-0.40732 6.61478,-0.75835 8.30975,-0.77961 l 3.08175,-0.0378 z m 44.821929,5.98467 c 1.86669,0.17807 10.94649,3.78998 16.488795,6.60606 11.440229,5.81283 22.524494,13.81694 31.715279,22.90109 5.043312,4.98478 13.221302,14.70091 13.221302,15.70803 0,0.25075 -8.986817,0.4563 -19.970672,0.4563 l -19.970669,0 -0.538845,-1.32075 c -0.29676,-0.72642 -1.77585,-4.49057 -3.28584,-8.36478 -3.399285,-8.72171 -9.397905,-20.84469 -14.526,-29.35581 -2.138025,-3.54851 -3.67089,-6.52689 -3.407355,-6.61868 0.05715,-0.02 0.14955,-0.0234 0.274005,-0.012 z m -81.542769,1.34712 c 1.38688,-0.0643 0.0836,1.97246 -2.99693,7.13115 -6.2764,10.51065 -12.21084,23.2719 -16.81783,36.16595 -0.33902,0.94887 -1.77932,1.02726 -18.87576,1.02726 -10.17995,0 -18.50891,-0.20555 -18.50891,-0.4563 0,-0.95412 7.97895,-10.48974 12.86933,-15.38013 10.71259,-10.71261 23.46271,-19.48223 37.41219,-25.73178 3.76116,-1.68504 5.96898,-2.71209 6.91791,-2.75615 z"
       id="path4505"
       inkscape:connector-curvature="0" />
    <path
       style="fill:#000000"
       d="m -125.36919,933.48557 c -35.44132,-3.82206 -67.11112,-18.82195 -91.614,-43.39147 -22.37343,-22.43427 -36.4953,-50.0227 -42.04491,-82.13878 -1.14988,-6.65445 -1.31863,-9.69689 -1.31863,-23.77358 0,-14.07669 0.16875,-17.11912 1.31863,-23.77355 5.54847,-32.10945 19.76271,-59.87327 42.07817,-82.18872 22.31545,-22.31547 50.07927,-36.52971 82.18872,-42.07818 6.65443,-1.14987 9.69687,-2.06204 23.77356,-2.06204 14.0767,0 17.119135,0.91217 23.77357,2.06204 32.109449,5.54847 59.873248,19.76271 82.1887157,42.07818 22.3154623,22.31545 36.5297073,50.07927 42.0781693,82.18872 1.149878,6.65443 2.369973,9.87209 2.369973,23.94878 0,14.07669 -1.220095,16.9439 -2.369973,23.59835 -5.549612,32.11608 -19.671482,59.70451 -42.0449098,82.13878 -22.3137172,22.37441 -49.9441512,36.55453 -81.9464852,42.05551 -5.836005,1.00317 -10.23435,1.78733 -21.70105,1.9193 -7.90985,0.091 -15.43814,-0.44408 -16.72955,-0.58334 z m 27.609045,-5.20681 c 14.29926,-1.50165 28.967594,-5.22421 41.846189,-10.61988 11.221814,-4.70152 18.891389,-9.08761 33.204299,-18.98893 7.119513,-4.92512 21.1446561,-18.95384 26.2035245,-26.21021 15.1708185,-21.76083 22.0357085,-36.67657 26.9171315,-58.48438 1.961519,-8.76312 3.590784,-22.28151 3.590784,-29.79362 0,-7.5121 -1.629265,-21.03049 -3.590784,-29.79361 -4.881423,-21.80781 -11.746313,-36.72354 -26.9171315,-58.48437 -5.0588684,-7.25638 -19.0840115,-21.2851 -26.2035245,-26.2102 -14.31291,-9.90132 -21.982485,-14.28743 -33.204299,-18.98894 -13.22196,-5.53951 -27.773099,-9.17421 -42.965939,-10.73236 -25.452495,-2.61036 -53.750745,3.23196 -78.878275,16.28482 -26.97077,14.01036 -47.14379,34.18337 -61.15413,61.15415 -9.95079,19.15584 -14.68212,37.6816 -16.14602,59.43299 -0.57231,8.50374 -0.52783,11.38085 0.30086,19.46111 1.49784,14.60488 4.52505,28.77421 9.73258,41.58708 4.6824,11.52084 9.5043,20.04712 19.54904,34.56733 4.9251,7.11951 18.95382,21.14466 26.2102,26.20352 22.02276,15.35344 37.38074,22.33783 59.90489,27.24313 14.29228,3.11256 27.42207,3.86131 41.600605,2.37237 z"
       id="path4558"
       inkscape:connector-curvature="0"
       sodipodi:nodetypes="cssssssssssssssscssssssssssssssssssss" />
  </g>
</svg>
